<?xml version="1.0" encoding="utf-8"?><svg width="197" height="153" viewBox="0 0 197 153" xmlns="http://www.w3.org/2000/svg" xmlns:xlink="http://www.w3.org/1999/xlink"><svg width="19" height="23" viewBox="0 0 19 23" x="173" id="engage--android" y="45"><path d="M5 18h1v4s0 1 1.5 1S9 22 9 22v-4h1v4s0 1 1.5 1 1.5-1 1.5-1v-4h1c1 0 1-1 1-1V8H4v9s0 1 1 1zM0 9v7s0 1 1.5 1S3 16 3 16V9s0-1-1.5-1S0 9 0 9zm17.5-1C16 8 16 9 16 9v7s0 1 1.5 1 1.5-1 1.5-1V9s0-1-1.5-1zM14 2V1h-1l-1 1c-.758.01-4.242.01-5 0L6 1S5 .978 5 1v1l1 1c-1.083.817-2 2.28-2 4h11c0-1.72-.917-3.27-2-4l1-1zM8 6H7V5h1v1zm4 0h-1V5h1v1z" fill="#fff"/></svg><svg width="22" height="22" viewBox="0 0 46 46" id="engage--facebook" x="103" y="45"><path d="M41.998 46C44.21 46 46 44.208 46 41.998V4c0-2.212-1.792-4-4.002-4H4C1.79 0 0 1.79 0 4v38c0 2.21 1.79 4 4 4h17.377V29.815h-5.452V23h5.452v-4.09c0-4.993 2.726-9.54 9.54-9.54h5.453v6.815h-3.567c-2.843 0-3.248.927-3.248 2.757V23h6.815l-.81 6.815h-6.005V46h12.443z" fill="#fff"/></svg><svg width="20" height="23" viewBox="0 0 20 23" x="103" id="engage--ios" y="22"><path d="M16.703 12.22c.035 3.48 3.26 4.638 3.297 4.653-.027.082-.516 1.65-1.7 3.27-1.024 1.402-2.086 2.798-3.76 2.827-1.645.028-2.174-.913-4.054-.913-1.88 0-2.467.884-4.024.942-1.616.055-2.846-1.517-3.878-2.913-2.11-2.856-3.72-8.07-1.557-11.588C2.102 6.75 4.024 5.645 6.11 5.616c1.586-.028 3.083 1 4.053 1 .97 0 2.79-1.237 4.702-1.055.8.03 3.05.303 4.492 2.28-.116.07-2.682 1.467-2.654 4.377m-3.09-8.55C14.47 2.7 15.046 1.347 14.89 0c-1.236.047-2.73.77-3.618 1.743-.795.86-1.49 2.238-1.303 3.558 1.376.1 2.784-.654 3.642-1.627" fill="#fff"/></svg><svg width="27" height="22" viewBox="0 0 46 38" x="64" id="engage--twitter" y="95"><path d="M46 4.7c-1.697.752-3.51 1.26-5.42 1.494 1.95-1.17 3.45-3.027 4.152-5.232-1.823 1.084-3.84 1.874-5.994 2.294C37.01 1.41 34.555.26 31.846.26c-5.215 0-9.436 4.234-9.436 9.457 0 .742.078 1.465.243 2.158-7.847-.39-14.807-4.16-19.457-9.89-.81 1.398-1.276 3.03-1.276 4.755 0 3.28 1.676 6.178 4.21 7.877-1.56-.04-3.02-.47-4.29-1.182v.12c0 4.586 3.258 8.403 7.575 9.27-.79.215-1.627.332-2.485.332-.605 0-1.2-.058-1.775-.175 1.2 3.758 4.69 6.49 8.823 6.57C10.75 32.088 6.676 33.6 2.25 33.6c-.76 0-1.51-.048-2.25-.136 4.16 2.716 9.122 4.276 14.443 4.276 17.38 0 26.876-14.416 26.876-26.92 0-.41-.01-.82-.03-1.22C43.13 8.26 44.73 6.603 46 4.7" fill="#fff"/></svg><svg width="51" height="73" viewBox="0 0 51 73" id="featured--switch_next" y="22"><defs><filter x="-50%" y="-50%" width="200%" height="200%" filterUnits="objectBoundingBox" id="aea"><feMorphology radius="1" in="SourceAlpha" operator="dilate" result="shadowSpreadOuter1"/><feOffset in="shadowSpreadOuter1" result="shadowOffsetOuter1"/><feGaussianBlur stdDeviation="4" in="shadowOffsetOuter1" result="shadowBlurOuter1"/><feColorMatrix values="0 0 0 0 0 0 0 0 0 0 0 0 0 0 0 0 0 0 0.35 0" in="shadowBlurOuter1" result="shadowMatrixOuter1"/><feMerge><feMergeNode in="shadowMatrixOuter1"/><feMergeNode in="SourceGraphic"/></feMerge></filter></defs><path d="M39.777 39.82l3.536-3.536L15.03 8l-7.072 7.07L29.17 36.285 7.96 57.497l7.07 7.07L39.78 39.82z" filter="url(#aea)" fill="#fff"/></svg><svg width="52" height="73" viewBox="0 0 52 73" id="featured--switch_prev" x="51" y="22"><defs><filter x="-50%" y="-50%" width="200%" height="200%" filterUnits="objectBoundingBox" id="afa"><feMorphology radius="1" in="SourceAlpha" operator="dilate" result="shadowSpreadOuter1"/><feOffset in="shadowSpreadOuter1" result="shadowOffsetOuter1"/><feGaussianBlur stdDeviation="4" in="shadowOffsetOuter1" result="shadowBlurOuter1"/><feColorMatrix values="0 0 0 0 0 0 0 0 0 0 0 0 0 0 0 0 0 0 0.35 0" in="shadowBlurOuter1" result="shadowMatrixOuter1"/><feMerge><feMergeNode in="shadowMatrixOuter1"/><feMergeNode in="SourceGraphic"/></feMerge></filter></defs><path d="M11.858 32.75l-3.536 3.535L36.606 64.57l7.07-7.072-21.212-21.213 21.213-21.213-7.07-7.07-24.75 24.748z" filter="url(#afa)" fill="#fff"/></svg><svg width="8" height="45" viewBox="0 0 8 45" id="lang-switcher_az" x="125" y="45"><g fill="none"><path fill="#0097C3" d="M0 0h8v15H0z"/><path fill="#E00034" d="M0 15h8v15H0z"/><path fill="#00AE65" d="M0 30h8v15H0z"/></g></svg><svg width="8" height="45" viewBox="0 0 8 45" id="lang-switcher_ru" x="133" y="45"><g fill="none"><path fill="#fff" d="M0 0h8v15H0z"/><path fill="#0039A6" d="M0 15h8v15H0z"/><path fill="#D52B1E" d="M0 30h8v15H0z"/></g></svg><svg width="125" height="22" viewBox="0 0 185 33" id="logo"><path d="M.92 16.7c0 9.42 7.44 16.02 16.74 16.02 9.36 0 16.8-6.6 16.8-16.02 0-9.36-7.44-16.02-16.8-16.02C8.36.68.92 7.34.92 16.7zm7.68 0c0-5.64 4.14-9.54 9.06-9.54 4.98 0 9.12 3.9 9.12 9.54 0 5.7-4.14 9.54-9.12 9.54-4.92 0-9.06-3.84-9.06-9.54zM36.04 32h8.46l5.28-8.52c.42-.66.9-1.62.9-1.62h.12s.42 1.02.84 1.62L56.98 32h8.46L55.42 16.52l5.1-7.62c.6-.9 1.08-1.02 2.34-1.02h2.16V1.4h-5.28c-2.58 0-3.6.54-4.98 2.88l-3 5.04c-.42.78-.96 1.98-.96 1.98h-.12s-.54-1.2-.96-1.98l-3-5.04c-1.38-2.34-2.46-2.88-4.98-2.88H36.4v6.48h2.22c1.26 0 1.74.12 2.34 1.02L46 16.52 36.04 32zm35.92-10.92c0 8.34 4.02 11.64 10.56 11.64 5.28 0 9.12-3.18 10.56-6.36h.12s-.06.66-.06 1.38v.84c0 2.16 1.38 3.42 4.02 3.42h7.02v-6.42h-2.4c-.84 0-1.32-.48-1.32-1.32V1.4h-7.62v14.04c0 5.46-3.06 10.32-8.58 10.32-3.78 0-4.74-2.52-4.74-6.24V5.42c0-2.76-1.2-4.02-4.02-4.02h-7.26v6.48h2.4c.84 0 1.32.42 1.32 1.32v11.88zM109.64 32h7.38v-7.62h-7.38V32zm13.62-8.82c0 6.12 4.98 9.54 10.44 9.54 6.9 0 9.24-5.4 9.24-5.4h.12s-.06.54-.06 1.32c0 1.8 1.08 3.36 3.9 3.36h6.84v-6.42h-2.4c-.84 0-1.32-.48-1.32-1.32v-11.4c0-6.84-3-12.18-13.2-12.18-3.18 0-11.22.6-11.22 6.3v3.24h7.08V8.6c0-1.68 2.7-2.04 4.08-2.04 3.9 0 5.64 1.62 5.64 6v.24h-.96c-4.98 0-18.18.78-18.18 10.38zm7.68-.36c0-4.26 6.3-4.8 10.26-4.8h1.32v.72c0 3.72-2.88 8.04-6.96 8.04-3.12 0-4.62-1.92-4.62-3.96zM156.5 32h23.76c2.82 0 4.02-1.2 4.02-4.08v-5.4h-6.9v1.68c0 .9-.48 1.32-1.32 1.32h-6.72c-1.98 0-2.88.18-2.88.18v-.12s1.2-1.14 2.58-2.82l14.1-17.22V1.4H160.7c-2.88 0-4.08 1.26-4.08 4.08v5.46h6.9V9.2c0-.84.48-1.32 1.32-1.32h5.52c1.92 0 2.82-.12 2.82-.12v.12s-1.2 1.08-2.58 2.82l-14.1 17.22V32z" fill="#fff"/></svg><svg width="18" height="15" viewBox="0 0 18 15" id="nav-toggle" x="79" y="121"><path d="M0 0h18v3H0V0zm0 6h18v3H0V6zm0 6h18v3H0v-3z" fill="#fff"/></svg><svg width="32" height="25" viewBox="0 0 46 36" id="news-share-i--icon-email" x="32" y="95"><title>icon-email</title><g transform="translate(0 .65)" fill="#FFF" fill-rule="evenodd"><path d="M45.537 4.882l-1.78-1.756-16.863 16.637c-2.147 2.118-5.64 2.118-7.788 0L2.243 3.126.463 4.882l12.592 12.42L.463 29.726l1.78 1.755 12.59-12.42 2.494 2.458c1.515 1.495 3.53 2.318 5.673 2.318 2.143 0 4.158-.823 5.673-2.318l2.493-2.46 12.59 12.422 1.78-1.755-12.59-12.422 12.59-12.42"/><path d="M41.94 34.702H4.06c-2.24 0-4.06-1.797-4.06-4.004V4.004C0 1.796 1.82 0 4.06 0h37.88C44.18 0 46 1.796 46 4.004v26.694c0 2.207-1.82 4.004-4.06 4.004zM4.06 2.67c-.747 0-1.354.6-1.354 1.334v26.694c0 .735.607 1.334 1.353 1.334h37.88c.747 0 1.354-.6 1.354-1.334V4.004c0-.735-.607-1.335-1.353-1.335H4.06z"/></g></svg><svg width="32" height="32" viewBox="0 0 46 46" id="news-share-i--icon-facebook" x="32" y="121"><title>icon-facebook</title><path d="M41.998 46C44.21 46 46 44.208 46 41.998V4.002C46 1.79 44.208 0 41.998 0H4.002C1.79 0 0 1.792 0 4.002v37.996C0 44.21 1.792 46 4.002 46h17.376V29.815h-5.452V23h5.452v-4.09c0-4.993 2.726-9.54 9.54-9.54h5.452v6.815h-3.567c-2.843 0-3.247.927-3.247 2.757V23h6.814l-.81 6.815h-6.004V46h12.442z" fill="#FFF" fill-rule="evenodd"/></svg><svg width="32" height="28" viewBox="0 0 53 46" id="news-share-i--icon-print" x="141" y="45"><title>icon-print</title><path d="M11.042.174h30.916v8.712H11.042V.174zM0 11.2v19.33h11.042v15.383h30.916V30.53H53V11.2H0zm37.542 30.357H15.458V26.31h22.084v15.247zm8.833-19.602c-1.83 0-3.312-1.463-3.312-3.268 0-1.804 1.482-3.267 3.312-3.267 1.83 0 3.312 1.463 3.312 3.267 0 1.805-1.482 3.268-3.312 3.268z" fill="#FFF" fill-rule="evenodd"/></svg><svg width="32" height="26" viewBox="0 0 46 38" id="news-share-i--icon-twitter" y="95"><title>icon-twitter</title><path d="M46 4.7c-1.697.752-3.51 1.26-5.42 1.494 1.95-1.17 3.45-3.027 4.152-5.232-1.823 1.084-3.84 1.874-5.994 2.294C37.012 1.41 34.555.26 31.846.26c-5.215 0-9.436 4.235-9.436 9.457 0 .742.078 1.465.244 2.158-7.847-.39-14.807-4.158-19.457-9.888C2.387 3.383 1.92 5.013 1.92 6.74c0 3.28 1.677 6.18 4.21 7.878-1.56-.04-3.02-.47-4.288-1.182v.118c0 4.587 3.256 8.404 7.574 9.272-.79.214-1.627.33-2.485.33-.604 0-1.198-.056-1.774-.174 1.2 3.758 4.69 6.49 8.823 6.57C10.75 32.088 6.676 33.6 2.25 33.6c-.76 0-1.51-.048-2.252-.136 4.163 2.713 9.124 4.275 14.445 4.275 17.38 0 26.876-14.416 26.876-26.92 0-.41-.01-.82-.03-1.22 1.843-1.337 3.442-2.995 4.71-4.9" fill="#FFF" fill-rule="evenodd"/></svg><svg width="32" height="32" viewBox="0 0 46 46" id="news-share-i--icon-whatsapp" y="121"><title>icon-whatsapp</title><path d="M46 22.408c0 12.375-10.11 22.407-22.582 22.407-3.96 0-7.68-1.012-10.916-2.788L0 46l4.076-12.022C2.02 30.6.836 26.64.836 22.408.836 10.032 10.946 0 23.418 0 35.892 0 46 10.032 46 22.408zM23.32 3.433c-10.588 0-19.2 8.613-19.2 19.2 0 4.2 1.358 8.092 3.657 11.257l-2.4 7.13 7.38-2.363c3.03 2.006 6.662 3.176 10.563 3.176 10.586 0 19.2-8.612 19.2-19.2 0-10.586-8.614-19.2-19.2-19.2zm11.614 24.163c-.14-.226-.51-.363-1.068-.635-.558-.27-3.3-1.587-3.81-1.767-.51-.182-.883-.273-1.254.27-.37.546-1.44 1.77-1.765 2.133-.326.364-.65.41-1.208.137-.558-.272-2.354-.847-4.483-2.7-1.657-1.44-2.776-3.22-3.102-3.764-.324-.545-.034-.84.245-1.11.25-.244.558-.635.836-.952.28-.318.372-.544.557-.908.187-.363.094-.68-.046-.953-.14-.27-1.255-2.947-1.72-4.036-.463-1.087-.927-.906-1.253-.906-.325 0-.697-.046-1.07-.046-.37 0-.974.136-1.486.68-.51.545-1.95 1.86-1.95 4.536 0 2.676 1.997 5.26 2.276 5.624.28.362 3.855 6.032 9.522 8.21 5.668 2.176 5.668 1.45 6.69 1.358 1.02-.09 3.297-1.315 3.764-2.584.463-1.27.463-2.36.324-2.586z" fill="#FFF" fill-rule="evenodd"/></svg><svg width="8" height="14" viewBox="0 0 8 14" id="related-news-i" x="186" y="95"><path d="M1.138 13.795l-.943-.99L5.725 7 .195 1.195l.942-.99L7.607 7l-6.47 6.795" fill="#888"/></svg><svg width="15" height="14" y="121" viewBox="0 0 15 14" id="resize--minus" x="97"><path d="M9 0h6v2H9V0zm-.94 14l-.88-3.16H2.74L1.88 14H.18L4.22.08h1.5L9.78 14H8.06zM5.78 5.74L5 2.66h-.08l-.78 3.06-1.02 3.62H6.8l-1.02-3.6z" fill="#999"/></svg><svg width="21" height="21" x="103" y="67" viewBox="0 0 21 21" id="resize--plus"><path d="M16 3h-3v2h3v3h2V5h3V3h-3V0h-2v3zm-3.91 18l-1.32-4.74H4.11L2.82 21H.27L6.33.12h2.25L14.67 21h-2.58zM8.67 8.61L7.5 3.99h-.12L6.21 8.58l-1.53 5.43h5.52l-1.53-5.4z" fill="#999"/></svg><svg width="20" height="20" viewBox="0 0 20 20" id="search" x="91" y="95"><path d="M13.768 11.62l.453.453 4.708 4.705L20 17.852 17.853 20l-1.074-1.075-4.708-4.705-.453-.453C10.44 14.547 9.022 15 7.5 15 3.36 15 0 11.64 0 7.5 0 3.356 3.36 0 7.5 0 11.644 0 15 3.356 15 7.5c0 1.52-.452 2.937-1.23 4.12zM2 7.5C2 4.462 4.462 2 7.5 2S13 4.462 13 7.5 10.538 13 7.5 13 2 10.538 2 7.5z" fill="#fff" fill-rule="evenodd"/></svg><svg width="15" height="19" x="126" y="95" viewBox="0 0 15 19" id="stats-i--dislikes--color"><path d="M7.083.155l.44.027c.523.047 1.05.08 1.57.15.656.09 1.31.2 1.958.324.775.147 1.54.335 2.274.625.235.095.463.21.683.334.29.164.422.427.422.762v7.673c0 .3-.11.534-.35.72-.934.722-1.907 1.387-2.937 1.97-.974.553-1.86 1.218-2.62 2.048-.154.17-.293.354-.434.536-.235.3-.357.655-.464 1.015-.11.367-.23.732-.41 1.073-.194.366-.447.675-.82.87-.223.117-.46.18-.708.2l-.07.012h-.27l-.054-.012c-.5-.048-.908-.27-1.226-.656-.352-.427-.503-.934-.554-1.474-.055-.582.01-1.155.147-1.72.235-.96.657-1.83 1.21-2.643l.06-.09-.038-.012-1.885-.484c-.386-.1-.763-.225-1.106-.438-.6-.372-1.016-.882-1.185-1.577L.65 9.025v-.37l.01-.04c.028-.3.112-.586.242-.857.255-.535.642-.958 1.1-1.32l.085-.118.37-.99c.418-1.09.858-2.168 1.396-3.203.226-.435.47-.857.775-1.24.222-.28.485-.505.84-.586.23-.052.46-.084.694-.117l.367-.03h.553z" fill="#DE0201"/></svg><svg width="15" height="19" x="141" y="95" viewBox="0 0 15 19" id="stats-i--dislikes--grey"><path d="M7.083.155l.44.027c.523.047 1.05.08 1.57.15.656.09 1.31.2 1.958.324.775.147 1.54.335 2.274.625.235.095.463.21.683.334.29.164.422.427.422.762v7.673c0 .3-.11.534-.35.72-.934.722-1.907 1.387-2.937 1.97-.974.553-1.86 1.218-2.62 2.048-.154.17-.293.354-.434.536-.235.3-.357.655-.464 1.015-.11.367-.23.732-.41 1.073-.194.366-.447.675-.82.87-.223.117-.46.18-.708.2l-.07.012h-.27l-.054-.012c-.5-.048-.908-.27-1.226-.656-.352-.427-.503-.934-.554-1.474-.055-.582.01-1.155.147-1.72.235-.96.657-1.83 1.21-2.643l.06-.09-.038-.01-1.885-.485c-.386-.1-.763-.225-1.106-.438-.6-.372-1.016-.882-1.185-1.577L.65 9.028v-.37l.01-.04c.028-.3.112-.586.242-.857.255-.532.642-.955 1.1-1.32l.085-.115.37-.99c.418-1.09.858-2.168 1.396-3.203.226-.433.47-.855.775-1.24.222-.28.485-.503.84-.584.23-.052.46-.084.694-.117L6.53.16l.554-.002z" fill="#999"/></svg><svg width="15" height="19" x="156" y="95" viewBox="0 0 15 19" id="stats-i--dislikes--white"><path d="M7.083.155l.44.027c.523.047 1.05.08 1.57.15.656.09 1.31.2 1.958.324.775.147 1.54.335 2.274.625.235.095.463.21.683.334.29.164.422.427.422.762v7.673c0 .3-.11.534-.35.72-.934.722-1.907 1.387-2.937 1.97-.974.553-1.86 1.218-2.62 2.048-.154.17-.293.354-.434.536-.235.3-.357.655-.464 1.015-.11.367-.23.732-.41 1.073-.194.366-.447.675-.82.87-.223.117-.46.18-.708.2l-.07.012h-.27l-.054-.012c-.5-.048-.908-.27-1.226-.656-.352-.427-.503-.934-.554-1.474-.055-.582.01-1.155.147-1.72.235-.96.657-1.83 1.21-2.643l.06-.09-.038-.01-1.885-.485c-.386-.1-.763-.225-1.106-.438-.6-.372-1.016-.882-1.185-1.577L.65 9.028v-.37l.01-.04c.028-.3.112-.586.242-.857.255-.532.642-.955 1.1-1.32l.085-.115.37-.99c.418-1.09.858-2.168 1.396-3.203.226-.433.47-.855.775-1.24.222-.28.485-.503.84-.584.23-.052.46-.084.694-.117L6.53.16l.554-.002z" fill="#fff"/></svg><svg width="15" height="19" x="171" y="95" viewBox="0 0 15 19" id="stats-i--likes--color"><path d="M7.622 18.493l-.44-.027c-.523-.047-1.05-.08-1.57-.15-.656-.09-1.31-.2-1.958-.324-.773-.147-1.538-.335-2.272-.625-.235-.093-.463-.207-.683-.332-.293-.164-.424-.427-.424-.762V8.6c0-.3.11-.535.348-.72.935-.723 1.908-1.388 2.938-1.972.974-.552 1.86-1.217 2.62-2.047.154-.17.293-.352.434-.534.234-.3.356-.655.463-1.015.11-.367.23-.732.41-1.073.193-.366.446-.675.82-.87.222-.117.46-.18.707-.2l.07-.012h.27l.054.012c.5.048.91.27 1.227.656.352.427.503.934.554 1.474.056.582-.01 1.155-.146 1.72-.234.96-.656 1.83-1.208 2.643l-.06.09.037.01 1.886.484c.385.1.762.225 1.105.438.6.372 1.016.882 1.185 1.577l.066.36v.37l-.012.04c-.027.3-.11.586-.24.857-.256.534-.643.957-1.102 1.32l-.084.117-.37.99c-.418 1.09-.858 2.168-1.396 3.203-.226.434-.47.856-.775 1.24-.222.28-.485.504-.84.585-.23.052-.46.084-.694.117l-.367.03H7.62z" fill="#028F1D"/></svg><svg width="15" height="19" x="64" y="121" viewBox="0 0 15 19" id="stats-i--likes--grey"><path d="M7.622 18.493l-.44-.027c-.523-.047-1.05-.08-1.57-.15-.656-.09-1.31-.2-1.958-.324-.773-.147-1.538-.335-2.272-.625-.235-.093-.463-.207-.683-.332-.293-.164-.424-.427-.424-.762V8.6c0-.3.11-.535.348-.72.935-.723 1.908-1.388 2.938-1.972.974-.552 1.86-1.217 2.62-2.047.154-.17.293-.352.434-.534.234-.3.356-.655.463-1.015.11-.367.23-.732.41-1.073.193-.366.446-.675.82-.87.222-.117.46-.18.707-.2l.07-.012h.27l.054.012c.5.048.91.27 1.227.656.352.427.503.934.554 1.474.056.582-.01 1.155-.146 1.72-.234.96-.656 1.83-1.208 2.643l-.06.088.037.01 1.886.485c.385.1.762.225 1.105.438.6.374 1.016.884 1.185 1.58l.066.36v.37l-.012.04c-.027.3-.11.587-.24.858-.256.534-.643.957-1.102 1.32l-.084.117-.37.99c-.418 1.09-.858 2.168-1.396 3.203-.226.434-.47.856-.775 1.24-.222.28-.485.504-.84.585-.23.052-.46.084-.694.117l-.367.03H7.62z" fill="#999"/></svg><svg width="15" height="19" x="111" y="95" viewBox="0 0 15 19" id="stats-i--likes--white"><path d="M7.622 18.493l-.44-.027c-.523-.047-1.05-.08-1.57-.15-.656-.09-1.31-.2-1.958-.324-.773-.147-1.538-.335-2.272-.625-.235-.093-.463-.207-.683-.332-.293-.164-.424-.427-.424-.762V8.6c0-.3.11-.535.348-.72.935-.723 1.908-1.388 2.938-1.972.974-.552 1.86-1.217 2.62-2.047.154-.17.293-.352.434-.534.234-.3.356-.655.463-1.015.11-.367.23-.732.41-1.073.193-.366.446-.675.82-.87.222-.117.46-.18.707-.2l.07-.012h.27l.054.012c.5.048.91.27 1.227.656.352.427.503.934.554 1.474.056.582-.01 1.155-.146 1.72-.234.96-.656 1.83-1.208 2.643l-.06.088.037.01 1.886.485c.385.1.762.225 1.105.438.6.374 1.016.884 1.185 1.58l.066.36v.37l-.012.04c-.027.3-.11.587-.24.858-.256.534-.643.957-1.102 1.32l-.084.117-.37.99c-.418 1.09-.858 2.168-1.396 3.203-.226.434-.47.856-.775 1.24-.222.28-.485.504-.84.585-.23.052-.46.084-.694.117l-.367.03H7.62z" fill="#fff"/></svg><svg width="21" height="12" y="73" viewBox="0 0 21 12" id="stats-i--views--grey" x="141"><path d="M10.5 0C4.632 0 0 6 0 6s4.63 6 10.5 6C14.99 12 21 6 21 6s-6.01-6-10.5-6zm0 9.738c-2.06 0-3.74-1.677-3.74-3.74 0-2.06 1.68-3.74 3.74-3.74 2.06 0 3.74 1.68 3.74 3.74 0 2.062-1.68 3.74-3.74 3.74zm0-5.92c-1.205 0-2.182.976-2.182 2.18 0 1.207.977 2.184 2.182 2.184 1.206 0 2.183-.978 2.183-2.185 0-1.203-.978-2.18-2.183-2.18z" fill="#999"/></svg><svg width="72" height="45" viewBox="0 0 72 45" id="up" x="125"><path d="M40.5 4.49L36-.01l-36 36 9 9 27-27 27 27 9-9-31.5-31.5z" fill="#1894A0"/></svg></svg>